<svg width="401" height="401" viewBox="0 0 401 401" fill="none" xmlns="http://www.w3.org/2000/svg">
<g filter="url(#filter0_d_1_1235)">
<path d="M397 196.5C397 305.024 309.024 393 200.5 393C91.976 393 4 305.024 4 196.5C4 87.976 91.976 0 200.5 0C309.024 0 397 87.976 397 196.5Z" fill="#CED1E7"/>
</g>
<circle cx="201" cy="196" r="173" fill="#EEECEF"/>
<path d="M201 175.5C187.173 162.329 178.353 155.917 161.5 145.5C170.62 156.713 174.832 163.32 177 177C172.526 198.183 171.937 197.128 170 218.5C170 218.5 161.087 198.167 148.5 181.5C138.5 167 130.5 154 125 139C120.5 113 111 101 95 81C101.481 95.665 104.924 104.03 109 120.5C92.1122 93.4719 80.191 80.8703 54.5 63C68.6874 93.4136 78.6661 107.594 98.5 130C77.2219 113.594 64.7208 104.872 41 90.5C60.1132 121.96 73.3791 134.813 98.5 155C78.0969 143.892 65.9784 138.512 43.5 130C64.0604 152.153 76.5571 161.248 100 173.5C80.402 166.452 69.0264 163.615 48 160.5C71.8649 185.792 88.477 188.938 119 191.5C96.7713 195.292 83.2767 194.77 57.5 189.5C83.9471 210.194 101.916 211.911 136.5 207C114.403 216.889 101.155 220.059 74 216C97.6566 235.892 109.283 234.942 136.5 224.5C124.31 235.717 114.673 239.977 96 246.5C117.423 250.574 124.876 246.163 144.5 233.5C135.886 246.476 129.209 252.903 116.5 264C132.809 261.669 138.6 256.937 151 243.5C148.456 253.341 145.779 257.384 140.5 264C154.609 261.519 161.266 254.243 170 242.5C178.005 257.031 182.736 262.139 196 266C159.983 300.087 138.159 313.406 103 305C124.97 317.173 139.027 317.272 169 298.5C162.467 310.05 158.035 316.102 148.5 326C163.836 320.712 169.724 315.252 177.5 303C176.15 317.023 173.732 324.361 168 337C182.588 330.871 187.97 323.284 193 303C190.358 322.999 199.5 340.5 201 340.5C202.5 340.5 211.642 322.999 209 303C214.03 323.284 219.412 330.871 234 337C228.268 324.361 225.85 317.023 224.5 303C232.276 315.252 238.164 320.712 253.5 326C243.965 316.102 239.533 310.05 233 298.5C262.973 317.272 277.03 317.173 299 305C263.841 313.406 242.017 300.087 206 266C219.264 262.139 224.495 257.531 232.5 243C241.234 254.743 247.391 261.519 261.5 264C256.221 257.384 253.544 253.341 251 243.5C263.4 256.937 269.191 261.669 285.5 264C272.791 252.903 266.114 246.476 257.5 233.5C277.124 246.163 284.577 250.574 306 246.5C287.327 239.977 277.69 235.717 265.5 224.5C292.717 234.942 304.343 235.892 328 216C300.845 220.059 287.597 216.889 265.5 207C300.084 211.911 318.053 210.194 344.5 189.5C318.723 194.77 305.229 195.292 283 191.5C313.523 188.938 330.135 185.792 354 160.5C332.974 163.615 321.598 166.452 302 173.5C325.443 161.248 337.94 152.153 358.5 130C336.022 138.512 323.903 143.892 303.5 155C328.621 134.813 341.887 121.96 361 90.5C337.279 104.872 324.778 113.594 303.5 130C323.334 107.594 333.313 93.4136 347.5 63C321.809 80.8703 309.888 93.4719 293 120.5C297.076 104.03 300.519 95.665 307 81C291 101 281.5 113 277 139C271.5 154 263.5 167 253.5 181.5C240.913 198.167 232.5 218.5 232.5 218.5C230.563 197.128 229.474 198.183 225 177C227.168 163.32 231.38 156.713 240.5 145.5C223.647 155.917 214.827 162.329 201 175.5Z" fill="#B092DA" fill-opacity="0.74"/>
<defs>
<filter id="filter0_d_1_1235" x="0" y="0" width="401" height="401" filterUnits="userSpaceOnUse" color-interpolation-filters="sRGB">
<feFlood flood-opacity="0" result="BackgroundImageFix"/>
<feColorMatrix in="SourceAlpha" type="matrix" values="0 0 0 0 0 0 0 0 0 0 0 0 0 0 0 0 0 0 127 0" result="hardAlpha"/>
<feOffset dy="4"/>
<feGaussianBlur stdDeviation="2"/>
<feComposite in2="hardAlpha" operator="out"/>
<feColorMatrix type="matrix" values="0 0 0 0 0 0 0 0 0 0 0 0 0 0 0 0 0 0 0.25 0"/>
<feBlend mode="normal" in2="BackgroundImageFix" result="effect1_dropShadow_1_1235"/>
<feBlend mode="normal" in="SourceGraphic" in2="effect1_dropShadow_1_1235" result="shape"/>
</filter>
</defs>
</svg>
