<?xml version="1.0" encoding="UTF-8"?>
<!DOCTYPE svg PUBLIC "-//W3C//DTD SVG 1.1//EN" "http://www.w3.org/Graphics/SVG/1.1/DTD/svg11.dtd">
<!-- Creator: CorelDRAW X8 -->
<svg xmlns="http://www.w3.org/2000/svg" xml:space="preserve" width="497px" height="117px" version="1.1" style="shape-rendering:geometricPrecision; text-rendering:geometricPrecision; image-rendering:optimizeQuality; fill-rule:evenodd; clip-rule:evenodd"
viewBox="0 0 49700 11700"
 xmlns:xlink="http://www.w3.org/1999/xlink">
 <defs>
  <style type="text/css">
   <![CDATA[
    .fil0 {fill:none}
    .fil1 {fill:#28328C}
    .fil2 {fill:#1E1E1E;fill-rule:nonzero}
    .fil3 {fill:#28328C;fill-rule:nonzero}
   ]]>
  </style>
 </defs>
 <g id="Layer_x0020_1">
  <metadata id="CorelCorpID_0Corel-Layer"/>
  <rect class="fil0" x="-49" y="100" width="49628" height="11700"/>
  <rect class="fil1" transform="matrix(2.39792E-14 -0.799999 12.1817 2.85066E-13 34678.7 2199.98)" width="1000" height="1100"/>
  <rect class="fil1" transform="matrix(8.30406E-14 -0.799999 42.1854 2.85066E-13 1674.23 10500)" width="1000" height="1100"/>
  <polygon class="fil2" points="4153,2850 4153,5505 3801,5505 3801,3184 2579,3184 2579,5505 2227,5505 2227,2850 "/>
  <path id="1" class="fil2" d="M6289 5266c-195,192 -431,288 -709,288 -279,0 -514,-96 -708,-288 -193,-192 -290,-429 -290,-709 0,-281 97,-517 290,-709 194,-193 429,-289 708,-289 278,0 514,96 709,289 194,192 292,428 292,709 0,280 -98,517 -292,709zm-709 -34c189,0 348,-65 477,-194 129,-129 194,-289 194,-481 0,-192 -65,-353 -194,-482 -129,-129 -288,-193 -477,-193 -188,0 -346,64 -475,193 -129,129 -193,290 -193,482 0,192 64,352 193,481 129,129 287,194 475,194z"/>
  <path id="2" class="fil2" d="M8485 3609l0 1896 -330 0 0 -1578 -747 0 0 774c0,311 -63,528 -188,650 -125,123 -302,174 -529,154l0 -311c129,18 225,-11 290,-85 64,-75 97,-213 97,-416l0 -1084 1407 0z"/>
  <polygon id="3" class="fil2" points="10362,3609 10628,3609 10628,5505 10302,5505 10302,4163 9243,5505 8985,5505 8985,3609 9312,3609 9312,4940 "/>
  <polygon id="4" class="fil2" points="12539,3609 12539,3927 11895,3927 11895,5505 11565,5505 11565,3927 10916,3927 10916,3609 "/>
  <path id="5" class="fil2" d="M12983 4708c33,170 111,301 233,395 123,94 274,140 454,140 250,0 432,-92 546,-277l280 160c-184,285 -462,428 -834,428 -301,0 -546,-94 -734,-282 -188,-189 -282,-427 -282,-715 0,-286 92,-524 276,-713 185,-190 424,-285 717,-285 278,0 505,98 681,294 176,196 264,432 264,708 0,48 -4,97 -12,147l-1589 0zm656 -838c-177,0 -323,50 -440,150 -116,100 -188,233 -216,400l1267 0c-28,-179 -99,-316 -213,-409 -113,-94 -246,-141 -398,-141z"/>
  <polygon id="6" class="fil2" points="16522,5505 16135,5505 15602,4789 15069,5505 14682,5505 15409,4529 14724,3609 15115,3609 15603,4267 16093,3609 16480,3609 15797,4527 "/>
  <polygon id="7" class="fil2" points="18141,3609 18471,3609 18471,5505 18141,5505 18141,4712 17159,4712 17159,5505 16829,5505 16829,3609 17159,3609 17159,4397 18141,4397 "/>
  <polygon id="8" class="fil2" points="20349,3609 20614,3609 20614,5505 20288,5505 20288,4163 19229,5505 18972,5505 18972,3609 19298,3609 19298,4940 "/>
  <path id="9" class="fil2" d="M22310 3609l330 0 0 1896 -330 0 0 -683c-152,66 -323,99 -512,99 -243,0 -431,-58 -564,-173 -132,-115 -199,-285 -199,-510l0 -629 330 0 0 610c0,142 39,243 116,304 77,60 190,91 339,91 180,0 343,-33 490,-99l0 -906z"/>
  <path id="10" class="fil2" d="M23372 4708c32,170 110,301 233,395 122,94 274,140 453,140 250,0 432,-92 546,-277l281 160c-185,285 -463,428 -835,428 -300,0 -545,-94 -733,-282 -189,-189 -283,-427 -283,-715 0,-286 92,-524 277,-713 184,-190 423,-285 717,-285 278,0 505,98 681,294 175,196 263,432 263,708 0,48 -4,97 -11,147l-1589 0zm656 -838c-177,0 -324,50 -440,150 -117,100 -189,233 -216,400l1266 0c-27,-179 -98,-316 -212,-409 -114,-94 -247,-141 -398,-141z"/>
  <path id="11" class="fil2" d="M26239 5554c-286,0 -523,-95 -713,-286 -190,-191 -285,-428 -285,-711 0,-283 95,-520 285,-711 190,-191 427,-287 713,-287 187,0 355,45 504,135 150,90 261,210 334,362l-277 159c-48,-101 -122,-182 -222,-242 -99,-61 -213,-91 -339,-91 -190,0 -348,64 -476,193 -128,129 -192,290 -192,482 0,189 64,349 192,478 128,129 286,193 476,193 126,0 240,-30 341,-89 101,-59 179,-140 232,-241l280 163c-81,149 -197,269 -349,359 -151,89 -319,134 -504,134z"/>
  <polygon id="12" class="fil2" points="29027,5505 28617,5505 27752,4607 27752,5505 27422,5505 27422,3609 27752,3609 27752,4444 28571,3609 28996,3609 28090,4526 "/>
  <path id="13" class="fil2" d="M30730 3609l330 0 0 1896 -330 0 0 -326c-165,250 -404,375 -717,375 -266,0 -492,-96 -679,-290 -187,-193 -281,-429 -281,-707 0,-278 94,-514 281,-708 187,-193 413,-290 679,-290 313,0 552,125 717,376l0 -326zm-676 1627c193,0 353,-65 482,-196 129,-130 194,-291 194,-483 0,-192 -65,-354 -194,-484 -129,-130 -289,-195 -482,-195 -189,0 -348,65 -477,195 -129,130 -194,292 -194,484 0,192 65,353 194,483 129,131 288,196 477,196z"/>
  <path id="14" class="fil2" d="M32979 3609l0 1896 -326 0 0 -683 -279 0 -529 683 -402 0 553 -702c-141,-35 -256,-106 -345,-212 -88,-106 -133,-230 -133,-372 0,-174 62,-320 186,-436 124,-116 280,-174 467,-174l808 0zm-797 917l471 0 0 -610 -471 0c-93,0 -173,28 -239,83 -65,56 -98,130 -98,224 0,91 33,164 98,220 66,56 146,83 239,83z"/>
  <path class="fil2" d="M3476 8126c-142,145 -315,217 -519,217 -204,0 -376,-72 -518,-217 -141,-145 -212,-323 -212,-535 0,-211 71,-389 212,-534 142,-145 314,-217 518,-217 204,0 377,72 519,217 143,145 214,323 214,534 0,212 -71,390 -214,535zm-519 -26c139,0 256,-48 350,-146 95,-97 142,-218 142,-363 0,-144 -47,-265 -142,-362 -94,-98 -211,-146 -350,-146 -137,0 -253,48 -347,146 -94,97 -142,218 -142,362 0,145 48,266 142,363 94,98 210,146 347,146z"/>
  <path id="1" class="fil2" d="M5085 6877l0 1429 -242 0 0 -1189 -547 0 0 583c0,234 -46,398 -138,490 -91,93 -220,131 -387,116l0 -234c94,13 165,-9 212,-65 48,-56 71,-160 71,-313l0 -817 1031 0z"/>
  <polygon id="2" class="fil2" points="6459,6877 6654,6877 6654,8306 6415,8306 6415,7295 5640,8306 5451,8306 5451,6877 5690,6877 5690,7880 "/>
  <polygon id="3" class="fil2" points="8409,6877 8409,8306 8173,8306 8173,7269 7731,8000 7701,8000 7259,7269 7259,8306 7020,8306 7020,6877 7278,6877 7716,7603 8154,6877 "/>
  <polygon id="4" class="fil2" points="9981,6877 9981,8306 9739,8306 9739,7114 9020,7114 9020,8306 8778,8306 8778,6877 "/>
  <polygon id="5" class="fil2" points="11356,6877 11550,6877 11550,8306 11311,8306 11311,7295 10536,8306 10348,8306 10348,6877 10586,6877 10586,7880 "/>
  <path id="6" class="fil2" d="M13067 6877l241 0 0 1429 -241 0 0 -246c-121,189 -296,283 -525,283 -195,0 -360,-73 -497,-219 -137,-145 -206,-323 -206,-533 0,-209 69,-387 206,-532 137,-146 302,-219 497,-219 229,0 404,94 525,283l0 -246zm-495 1226c141,0 259,-49 353,-147 94,-98 142,-220 142,-365 0,-144 -48,-266 -142,-364 -94,-98 -212,-147 -353,-147 -139,0 -255,49 -350,147 -94,98 -141,220 -141,364 0,145 47,267 141,365 95,98 211,147 350,147z"/>
  <path id="7" class="fil2" d="M14869 8069l192 0 0 620 -239 0 0 -383 -1042 0 0 383 -238 0 0 -620 169 0c89,-126 133,-302 133,-529l0 -663 1025 0 0 1192zm-883 0l644 0 0 -960 -547 0 0 431c0,213 -32,390 -97,529z"/>
  <path id="8" class="fil2" d="M16416 6877l242 0 0 1429 -242 0 0 -246c-120,189 -295,283 -525,283 -194,0 -360,-73 -497,-219 -137,-145 -206,-323 -206,-533 0,-209 69,-387 206,-532 137,-146 303,-219 497,-219 230,0 405,94 525,283l0 -246zm-494 1226c140,0 258,-49 352,-147 95,-98 142,-220 142,-365 0,-144 -47,-266 -142,-364 -94,-98 -212,-147 -352,-147 -139,0 -256,49 -350,147 -95,98 -142,220 -142,364 0,145 47,267 142,365 94,98 211,147 350,147z"/>
  <polygon id="9" class="fil2" points="19379,6877 19621,6877 19621,8306 17719,8306 17719,6877 17960,6877 17960,8069 18549,8069 18549,6877 18791,6877 18791,8069 19379,8069 "/>
  <polygon id="10" class="fil2" points="21165,8306 20865,8306 20232,7630 20232,8306 19990,8306 19990,6877 20232,6877 20232,7506 20832,6877 21143,6877 20479,7569 "/>
  <path id="11" class="fil2" d="M22435 8126c-143,145 -316,217 -520,217 -204,0 -376,-72 -518,-217 -141,-145 -212,-323 -212,-535 0,-211 71,-389 212,-534 142,-145 314,-217 518,-217 204,0 377,72 520,217 142,145 213,323 213,534 0,212 -71,390 -213,535zm-520 -26c139,0 256,-48 350,-146 95,-97 142,-218 142,-363 0,-144 -47,-265 -142,-362 -94,-98 -211,-146 -350,-146 -137,0 -253,48 -347,146 -94,97 -142,218 -142,362 0,145 48,266 142,363 94,98 210,146 347,146z"/>
  <path id="12" class="fil2" d="M24043 6877l0 1429 -242 0 0 -1189 -547 0 0 583c0,234 -46,398 -138,490 -91,93 -220,131 -387,116l0 -234c94,13 165,-9 212,-65 48,-56 71,-160 71,-313l0 -817 1031 0z"/>
  <path id="13" class="fil2" d="M24995 7391c139,0 254,43 346,128 92,84 137,194 137,330 0,135 -45,245 -137,330 -92,84 -207,127 -346,127l-586 0 0 -1429 242 0 0 514 344 0zm0 683c69,0 127,-20 174,-61 47,-41 71,-96 71,-164 0,-69 -24,-124 -71,-166 -47,-42 -105,-63 -174,-63l-344 0 0 454 344 0z"/>
  <polygon id="14" class="fil2" points="26700,6877 26942,6877 26942,8306 26700,8306 26700,7709 25981,7709 25981,8306 25740,8306 25740,6877 25981,6877 25981,7471 26700,7471 "/>
  <polygon id="15" class="fil2" points="28317,6877 28511,6877 28511,8306 28272,8306 28272,7295 27497,8306 27309,8306 27309,6877 27548,6877 27548,7880 "/>
  <polygon id="16" class="fil2" points="30053,8306 29753,8306 29120,7630 29120,8306 28878,8306 28878,6877 29120,6877 29120,7506 29719,6877 30030,6877 29367,7569 "/>
  <path id="17" class="fil2" d="M31322 8126c-143,145 -316,217 -519,217 -204,0 -377,-72 -518,-217 -142,-145 -213,-323 -213,-535 0,-211 71,-389 213,-534 141,-145 314,-217 518,-217 203,0 376,72 519,217 143,145 214,323 214,534 0,212 -71,390 -214,535zm-519 -26c138,0 255,-48 350,-146 94,-97 141,-218 141,-363 0,-144 -47,-265 -141,-362 -95,-98 -212,-146 -350,-146 -137,0 -253,48 -348,146 -94,97 -141,218 -141,362 0,145 47,266 141,363 95,98 211,146 348,146z"/>
  <path id="18" class="fil2" d="M32747 7571c142,61 214,172 214,332 0,118 -39,215 -116,290 -76,75 -186,113 -329,113l-694 0 0 -1429 639 0c139,0 246,36 322,107 76,72 114,166 114,282 0,137 -50,239 -150,305zm-297 -471l-392 0 0 374 392 0c140,0 211,-63 211,-191 0,-122 -71,-183 -211,-183zm52 980c71,0 125,-17 163,-51 38,-35 57,-83 57,-146 0,-59 -19,-105 -57,-139 -38,-33 -92,-50 -163,-50l-444 0 0 386 444 0z"/>
  <path class="fil3" d="M34626 8214l0 -481 1565 -1597c418,-418 627,-777 627,-1077 0,-250 -76,-444 -228,-583 -152,-140 -338,-209 -557,-209 -419,0 -723,198 -913,595l-494 -291c139,-287 333,-505 580,-653 247,-148 520,-222 820,-222 372,0 695,123 970,368 274,245 412,574 412,988 0,448 -264,936 -791,1465l-1132 1127 2005 0 0 570 -2864 0z"/>
  <path id="1" class="fil3" d="M40931 7669c-300,418 -721,627 -1261,627 -541,0 -961,-209 -1261,-627 -300,-418 -450,-976 -450,-1673 0,-697 150,-1254 450,-1672 300,-419 720,-628 1261,-628 540,0 961,209 1261,628 299,418 449,975 449,1672 0,697 -150,1255 -449,1673zm-2091 -399c194,300 471,450 830,450 359,0 636,-150 833,-450 196,-300 294,-724 294,-1274 0,-549 -98,-974 -294,-1276 -197,-302 -474,-453 -833,-453 -359,0 -636,150 -830,450 -195,299 -292,726 -292,1279 0,550 97,974 292,1274z"/>
  <path id="2" class="fil3" d="M41811 8214l0 -481 1565 -1597c418,-418 628,-777 628,-1077 0,-250 -77,-444 -229,-583 -152,-140 -338,-209 -557,-209 -418,0 -722,198 -913,595l-494 -291c140,-287 333,-505 580,-653 247,-148 521,-222 821,-222 371,0 694,123 969,368 275,245 412,574 412,988 0,448 -264,936 -791,1465l-1132 1127 2005 0 0 570 -2864 0z"/>
  <path id="3" class="fil3" d="M45150 8214l0 -481 1565 -1597c419,-418 628,-777 628,-1077 0,-250 -76,-444 -228,-583 -152,-140 -338,-209 -558,-209 -418,0 -722,198 -912,595l-495 -291c140,-287 333,-505 580,-653 247,-148 521,-222 821,-222 371,0 695,123 969,368 275,245 412,574 412,988 0,448 -264,936 -791,1465l-1132 1127 2005 0 0 570 -2864 0z"/>
 </g>
</svg>
